<svg width="444" height="444" viewBox="0 0 444 444" fill="none" xmlns="http://www.w3.org/2000/svg">
<circle cx="222" cy="222" r="222" fill="#E9D8A6"/>
<circle cx="123.5" cy="194.5" r="76.5" fill="#005F73"/>
<path d="M344.398 217.956C336.107 205.98 324.57 196.62 311.142 190.976C297.715 185.332 282.955 183.639 268.598 186.096C254.241 188.552 240.884 195.057 230.096 204.844C219.309 214.631 211.54 227.295 207.703 241.345C203.865 255.396 204.119 270.251 208.434 284.163C212.749 298.074 220.946 310.465 232.061 319.878C243.176 329.292 256.748 335.336 271.18 337.301C285.612 339.266 300.306 337.069 313.533 330.97L281.5 261.5L344.398 217.956Z" fill="#9B2226"/>
<path d="M224.966 254.802C240.126 247.943 257.109 246.214 273.34 249.876C289.571 253.539 304.166 262.394 314.911 275.099C325.656 287.804 331.966 303.666 332.884 320.28C333.801 336.894 329.277 353.354 319.997 367.165C310.717 380.977 297.187 391.386 281.458 396.814C265.729 402.243 248.659 402.395 232.836 397.248C217.013 392.101 203.299 381.935 193.774 368.292C184.249 354.648 179.432 338.271 180.053 321.643L256.5 324.5L224.966 254.802Z" fill="#9B2226"/>
<circle cx="130" cy="225" r="23" fill="#E9D8A6"/>
<rect x="254.125" y="14" width="65.0348" height="315" rx="32.5174" transform="rotate(25 254.125 14)" fill="#005F73"/>
</svg>
