<svg width="444" height="444" viewBox="0 0 444 444" fill="none" xmlns="http://www.w3.org/2000/svg">
<circle cx="222" cy="222" r="222" fill="#E9D8A6"/>
<circle cx="117.5" cy="202.5" r="76.5" fill="#005F73"/>
<path d="M334.283 228.805C336.553 227.233 337.136 224.104 335.42 221.941C327.436 211.882 317.03 203.973 305.142 198.976C291.715 193.332 276.955 191.639 262.598 194.096C248.241 196.552 234.884 203.057 224.096 212.844C213.309 222.631 205.54 235.295 201.703 249.346C197.865 263.396 198.119 278.251 202.434 292.163C206.749 306.074 214.946 318.465 226.061 327.878C237.176 337.292 250.748 343.336 265.18 345.301C277.957 347.04 290.939 345.518 302.927 340.914C305.505 339.924 306.596 336.938 305.439 334.43L277.259 273.314C276.242 271.109 276.964 268.487 278.96 267.104C300.059 252.498 313.345 243.3 334.283 228.805Z" fill="#9B2226"/>
<path d="M221.027 267.357C219.889 264.841 221.001 261.862 223.586 260.891C237.529 255.65 252.739 254.582 267.34 257.876C283.571 261.539 298.166 270.394 308.911 283.099C319.656 295.804 325.966 311.666 326.884 328.28C327.801 344.894 323.277 361.354 313.997 375.165C304.717 388.977 291.187 399.386 275.458 404.814C259.729 410.243 242.659 410.395 226.836 405.248C211.013 400.101 197.299 389.935 187.774 376.292C179.206 364.018 174.447 349.533 174.03 334.643C173.953 331.882 176.29 329.727 179.05 329.83L242.428 332.198C246.139 332.337 248.701 328.524 247.17 325.141L221.027 267.357Z" fill="#9B2226"/>
<circle cx="124" cy="233" r="23" fill="#E9D8A6"/>
<path d="M233.333 53.7208C241.503 36.2019 262.327 28.6224 279.846 36.7916L295.759 44.2123C298.262 45.3793 299.345 48.3542 298.178 50.8569L179.329 305.729C172.612 320.135 155.488 326.367 141.083 319.65V319.65C126.678 312.932 120.446 295.809 127.163 281.404L233.333 53.7208Z" fill="#005F73"/>
</svg>
